<svg width="521.301" height="98" viewBox="0 0 521.301 98" xmlns="http://www.w3.org/2000/svg"><g id="svgGroup" stroke-linecap="round" fill-rule="evenodd" font-size="9pt" stroke="#ffffff" stroke-width="0.25mm" fill="#ffffff" style="stroke:#ffffff;stroke-width:0.25mm;fill:#ffffff"><path d="M 19.5 2 L 41.3 42 L 41.5 42 L 41.5 2 L 61 2 L 61 75 L 41.5 75 L 19.7 35 L 19.5 35 L 19.5 75 L 0 75 L 0 2 L 19.5 2 Z M 155.7 2 L 177.5 42 L 177.7 42 L 177.7 2 L 197.2 2 L 197.2 75 L 177.7 75 L 155.9 35 L 155.7 35 L 155.7 75 L 136.2 75 L 136.2 2 L 155.7 2 Z M 341.5 2 L 341.5 33 L 341.7 33 L 360.5 2 L 383.5 2 L 360.5 37 L 384.5 75 L 361.5 75 L 341.7 41 L 341.5 41 L 341.5 75 L 321.5 75 L 321.5 2 L 341.5 2 Z M 308.9 8 L 303.4 22.5 Q 295.1 17 286.9 17 A 27.242 27.242 0 0 0 280.739 17.656 Q 275.344 18.908 271.8 22.55 Q 266.4 28.1 266.4 38.5 A 28.526 28.526 0 0 0 267.114 45.072 A 19.056 19.056 0 0 0 272.05 54.25 A 18.928 18.928 0 0 0 283.309 59.763 A 26.306 26.306 0 0 0 286.9 60 A 26.59 26.59 0 0 0 297.125 57.878 A 36.948 36.948 0 0 0 303.4 54.5 L 308.9 69 A 37.78 37.78 0 0 1 292.701 75.415 A 50.255 50.255 0 0 1 284.9 76 A 50.52 50.52 0 0 1 272.624 74.589 A 35.526 35.526 0 0 1 256.55 65.95 A 33.192 33.192 0 0 1 246.674 47.346 A 48.306 48.306 0 0 1 245.9 38.5 Q 245.9 20.9 256.15 10.95 A 33.578 33.578 0 0 1 270.994 2.706 Q 276.264 1.267 282.541 1.042 A 65.892 65.892 0 0 1 284.9 1 A 47.29 47.29 0 0 1 296.72 2.413 A 36.78 36.78 0 0 1 308.9 8 Z M 520.3 25.5 L 516.8 38.7 A 59.261 59.261 0 0 0 508.532 36.331 A 43.403 43.403 0 0 0 499.8 35.4 A 38.864 38.864 0 0 0 497.876 35.444 Q 495.113 35.582 493.9 36.15 A 3.323 3.323 0 0 0 493.082 36.678 A 2.336 2.336 0 0 0 492.3 38.5 A 2.734 2.734 0 0 0 492.521 39.617 Q 492.836 40.33 493.6 40.8 A 4.89 4.89 0 0 0 494.468 41.208 Q 495.83 41.709 498.3 42 A 67.49 67.49 0 0 1 504.629 43.056 Q 512.094 44.701 515.95 47.8 A 13.91 13.91 0 0 1 521.236 57.918 A 19.149 19.149 0 0 1 521.3 59.5 Q 521.3 66.9 515.565 71.313 A 18.141 18.141 0 0 1 515.25 71.55 A 20.145 20.145 0 0 1 509.323 74.472 Q 504.48 76 497.8 76 A 62.98 62.98 0 0 1 482.65 74.237 A 53.625 53.625 0 0 1 473.3 71 L 476.8 57.6 A 39.809 39.809 0 0 0 495.8 62.4 A 18.608 18.608 0 0 0 497.988 62.283 Q 500.185 62.021 501.263 61.174 A 2.626 2.626 0 0 0 502.3 59 A 2.612 2.612 0 0 0 502.214 58.307 A 1.69 1.69 0 0 0 501.3 57.2 A 4.422 4.422 0 0 0 500.719 56.972 Q 499.425 56.547 496.3 56 A 68.412 68.412 0 0 1 490.045 54.739 Q 483.891 53.171 480.269 50.705 A 16.049 16.049 0 0 1 479 49.75 A 14.23 14.23 0 0 1 473.846 39.364 A 19.899 19.899 0 0 1 473.8 38 A 14.975 14.975 0 0 1 474.829 32.346 Q 476.193 28.966 479.369 26.566 A 17.278 17.278 0 0 1 479.8 26.25 Q 485.683 22.083 497.334 22.002 A 66.78 66.78 0 0 1 497.8 22 A 72.337 72.337 0 0 1 516.956 24.492 A 67.067 67.067 0 0 1 520.3 25.5 Z M 440.7 72.6 L 440.7 23 L 460.7 23 L 460.7 71 A 63.612 63.612 0 0 1 460.505 76.146 Q 460.133 80.719 459.05 84 Q 457.4 89 453.15 92.25 Q 449.298 95.195 443.394 96.498 A 37.289 37.289 0 0 1 442.15 96.75 A 63.012 63.012 0 0 1 437.043 97.462 Q 434.382 97.731 431.297 97.865 A 151.833 151.833 0 0 1 424.7 98 L 423.7 83.6 A 204.87 204.87 0 0 0 426.562 83.581 Q 429.321 83.543 431.282 83.424 A 45.226 45.226 0 0 0 432.9 83.3 Q 436 83 437.9 81.65 A 6.889 6.889 0 0 0 439.163 80.511 A 4.998 4.998 0 0 0 440.25 78.4 Q 440.599 76.927 440.677 74.251 A 56.547 56.547 0 0 0 440.7 72.6 Z M 234.8 75 L 212.8 75 L 212.8 2 L 234.8 2 L 234.8 75 Z M 98.6 22 A 46.074 46.074 0 0 0 97.29 22.018 Q 85.136 22.364 78.3 29.2 A 23.77 23.77 0 0 0 71.99 40.808 A 35.562 35.562 0 0 0 71.1 49 A 35.721 35.721 0 0 0 71.951 57.024 A 23.815 23.815 0 0 0 78.3 68.8 A 22.106 22.106 0 0 0 81.238 71.269 Q 87.981 76 98.6 76 A 46.074 46.074 0 0 0 99.91 75.982 Q 112.064 75.636 118.9 68.8 A 23.77 23.77 0 0 0 125.21 57.192 A 35.562 35.562 0 0 0 126.1 49 A 35.721 35.721 0 0 0 125.249 40.976 A 23.815 23.815 0 0 0 118.9 29.2 A 22.106 22.106 0 0 0 115.962 26.731 Q 109.219 22 98.6 22 Z M 417.1 75 L 395.1 75 L 395.1 54 L 417.1 54 L 417.1 75 Z M 91.9 59.3 A 7.129 7.129 0 0 0 96.679 62.241 A 11.05 11.05 0 0 0 98.6 62.4 A 10.307 10.307 0 0 0 101.305 62.066 A 6.995 6.995 0 0 0 105.3 59.3 A 9.288 9.288 0 0 0 106.484 56.893 Q 107.5 53.894 107.5 49 Q 107.5 42.939 105.941 39.784 A 7.961 7.961 0 0 0 105.3 38.7 A 7.129 7.129 0 0 0 100.521 35.759 A 11.05 11.05 0 0 0 98.6 35.6 A 10.307 10.307 0 0 0 95.895 35.934 A 6.995 6.995 0 0 0 91.9 38.7 A 9.288 9.288 0 0 0 90.716 41.107 Q 89.7 44.106 89.7 49 Q 89.7 55.061 91.259 58.216 A 7.961 7.961 0 0 0 91.9 59.3 Z M 460.7 14 L 440.7 14 L 440.7 0 L 460.7 0 L 460.7 14 Z" vector-effect="non-scaling-stroke"/></g></svg>